<mxfile host="app.diagrams.net" modified="2023-10-02T02:04:47.580Z" agent="Mozilla/5.0 (Windows NT 10.0; Win64; x64) AppleWebKit/537.36 (KHTML, like Gecko) Chrome/117.0.0.0 Safari/537.36" etag="YBH3agvHTOr1SiJ4lD8G" version="21.1.1" type="device">
  <diagram name="Page-1" id="4mgqlU77FpCWCgluZjmG">
    <mxGraphModel dx="1395" dy="632" grid="1" gridSize="10" guides="1" tooltips="1" connect="1" arrows="1" fold="1" page="1" pageScale="1" pageWidth="850" pageHeight="1100" math="0" shadow="0">
      <root>
        <mxCell id="0" />
        <mxCell id="1" parent="0" />
        <mxCell id="wPfE8MKBhXClcY38XdCO-3" style="edgeStyle=orthogonalEdgeStyle;rounded=0;orthogonalLoop=1;jettySize=auto;html=1;entryX=0;entryY=0.5;entryDx=0;entryDy=0;" edge="1" parent="1" source="wPfE8MKBhXClcY38XdCO-1" target="wPfE8MKBhXClcY38XdCO-2">
          <mxGeometry relative="1" as="geometry">
            <Array as="points" />
          </mxGeometry>
        </mxCell>
        <mxCell id="wPfE8MKBhXClcY38XdCO-1" value="Start" style="ellipse;whiteSpace=wrap;html=1;" vertex="1" parent="1">
          <mxGeometry x="40" y="40" width="120" height="80" as="geometry" />
        </mxCell>
        <mxCell id="wPfE8MKBhXClcY38XdCO-27" style="edgeStyle=orthogonalEdgeStyle;rounded=0;orthogonalLoop=1;jettySize=auto;html=1;entryX=0;entryY=0.5;entryDx=0;entryDy=0;" edge="1" parent="1" source="wPfE8MKBhXClcY38XdCO-2" target="wPfE8MKBhXClcY38XdCO-4">
          <mxGeometry relative="1" as="geometry" />
        </mxCell>
        <mxCell id="wPfE8MKBhXClcY38XdCO-2" value="reddit main page" style="shape=parallelogram;perimeter=parallelogramPerimeter;whiteSpace=wrap;html=1;fixedSize=1;" vertex="1" parent="1">
          <mxGeometry x="200" y="50" width="120" height="60" as="geometry" />
        </mxCell>
        <mxCell id="wPfE8MKBhXClcY38XdCO-10" style="edgeStyle=orthogonalEdgeStyle;rounded=0;orthogonalLoop=1;jettySize=auto;html=1;entryX=0;entryY=0.5;entryDx=0;entryDy=0;" edge="1" parent="1" source="wPfE8MKBhXClcY38XdCO-4" target="wPfE8MKBhXClcY38XdCO-8">
          <mxGeometry relative="1" as="geometry">
            <Array as="points" />
          </mxGeometry>
        </mxCell>
        <mxCell id="wPfE8MKBhXClcY38XdCO-4" value="go to login menu" style="rounded=0;whiteSpace=wrap;html=1;" vertex="1" parent="1">
          <mxGeometry x="360" y="50" width="120" height="60" as="geometry" />
        </mxCell>
        <mxCell id="wPfE8MKBhXClcY38XdCO-13" style="edgeStyle=orthogonalEdgeStyle;rounded=0;orthogonalLoop=1;jettySize=auto;html=1;entryX=1;entryY=0.5;entryDx=0;entryDy=0;" edge="1" parent="1" source="wPfE8MKBhXClcY38XdCO-6" target="wPfE8MKBhXClcY38XdCO-7">
          <mxGeometry relative="1" as="geometry" />
        </mxCell>
        <mxCell id="wPfE8MKBhXClcY38XdCO-24" value="Yes" style="edgeLabel;html=1;align=center;verticalAlign=middle;resizable=0;points=[];" vertex="1" connectable="0" parent="wPfE8MKBhXClcY38XdCO-13">
          <mxGeometry x="-0.2971" y="2" relative="1" as="geometry">
            <mxPoint as="offset" />
          </mxGeometry>
        </mxCell>
        <mxCell id="wPfE8MKBhXClcY38XdCO-14" style="edgeStyle=orthogonalEdgeStyle;rounded=0;orthogonalLoop=1;jettySize=auto;html=1;entryX=0.5;entryY=0;entryDx=0;entryDy=0;" edge="1" parent="1" source="wPfE8MKBhXClcY38XdCO-6" target="wPfE8MKBhXClcY38XdCO-9">
          <mxGeometry relative="1" as="geometry">
            <Array as="points">
              <mxPoint x="580" y="200" />
            </Array>
          </mxGeometry>
        </mxCell>
        <mxCell id="wPfE8MKBhXClcY38XdCO-23" value="No" style="edgeLabel;html=1;align=center;verticalAlign=middle;resizable=0;points=[];" vertex="1" connectable="0" parent="wPfE8MKBhXClcY38XdCO-14">
          <mxGeometry x="-0.281" relative="1" as="geometry">
            <mxPoint as="offset" />
          </mxGeometry>
        </mxCell>
        <mxCell id="wPfE8MKBhXClcY38XdCO-6" value="have &lt;br&gt;account ?" style="rhombus;whiteSpace=wrap;html=1;" vertex="1" parent="1">
          <mxGeometry x="540" y="160" width="80" height="80" as="geometry" />
        </mxCell>
        <mxCell id="wPfE8MKBhXClcY38XdCO-16" style="edgeStyle=orthogonalEdgeStyle;rounded=0;orthogonalLoop=1;jettySize=auto;html=1;entryX=0.5;entryY=0;entryDx=0;entryDy=0;" edge="1" parent="1" source="wPfE8MKBhXClcY38XdCO-7" target="wPfE8MKBhXClcY38XdCO-15">
          <mxGeometry relative="1" as="geometry" />
        </mxCell>
        <mxCell id="wPfE8MKBhXClcY38XdCO-7" value="fill login &lt;br&gt;credentials" style="rounded=0;whiteSpace=wrap;html=1;shape=parallelogram;perimeter=parallelogramPerimeter;" vertex="1" parent="1">
          <mxGeometry x="200" y="170" width="120" height="60" as="geometry" />
        </mxCell>
        <mxCell id="wPfE8MKBhXClcY38XdCO-28" style="edgeStyle=orthogonalEdgeStyle;rounded=0;orthogonalLoop=1;jettySize=auto;html=1;entryX=0.5;entryY=0;entryDx=0;entryDy=0;" edge="1" parent="1" source="wPfE8MKBhXClcY38XdCO-8" target="wPfE8MKBhXClcY38XdCO-6">
          <mxGeometry relative="1" as="geometry" />
        </mxCell>
        <mxCell id="wPfE8MKBhXClcY38XdCO-8" value="show login menu" style="shape=parallelogram;perimeter=parallelogramPerimeter;whiteSpace=wrap;html=1;fixedSize=1;" vertex="1" parent="1">
          <mxGeometry x="520" y="50" width="120" height="60" as="geometry" />
        </mxCell>
        <mxCell id="wPfE8MKBhXClcY38XdCO-20" style="edgeStyle=orthogonalEdgeStyle;rounded=0;orthogonalLoop=1;jettySize=auto;html=1;entryX=0.5;entryY=0;entryDx=0;entryDy=0;exitX=0.5;exitY=1;exitDx=0;exitDy=0;" edge="1" parent="1" source="wPfE8MKBhXClcY38XdCO-9" target="wPfE8MKBhXClcY38XdCO-17">
          <mxGeometry relative="1" as="geometry">
            <mxPoint x="590" y="240" as="targetPoint" />
            <Array as="points" />
          </mxGeometry>
        </mxCell>
        <mxCell id="wPfE8MKBhXClcY38XdCO-9" value="go to register menu" style="rounded=0;whiteSpace=wrap;html=1;" vertex="1" parent="1">
          <mxGeometry x="520" y="290" width="120" height="60" as="geometry" />
        </mxCell>
        <mxCell id="wPfE8MKBhXClcY38XdCO-26" style="edgeStyle=orthogonalEdgeStyle;rounded=0;orthogonalLoop=1;jettySize=auto;html=1;entryX=1;entryY=0.5;entryDx=0;entryDy=0;" edge="1" parent="1" source="wPfE8MKBhXClcY38XdCO-15" target="wPfE8MKBhXClcY38XdCO-25">
          <mxGeometry relative="1" as="geometry" />
        </mxCell>
        <mxCell id="wPfE8MKBhXClcY38XdCO-15" value="back in reddit &lt;br&gt;main page &lt;br&gt;already &lt;br&gt;logged in" style="shape=label;perimeter=rectanglePerimeter;whiteSpace=wrap;html=1;fixedSize=1;rounded=0;" vertex="1" parent="1">
          <mxGeometry x="200" y="410" width="120" height="60" as="geometry" />
        </mxCell>
        <mxCell id="wPfE8MKBhXClcY38XdCO-21" style="edgeStyle=orthogonalEdgeStyle;rounded=0;orthogonalLoop=1;jettySize=auto;html=1;entryX=1;entryY=0.5;entryDx=0;entryDy=0;exitX=0;exitY=0.5;exitDx=0;exitDy=0;" edge="1" parent="1" source="wPfE8MKBhXClcY38XdCO-17" target="wPfE8MKBhXClcY38XdCO-18">
          <mxGeometry relative="1" as="geometry">
            <Array as="points" />
          </mxGeometry>
        </mxCell>
        <mxCell id="wPfE8MKBhXClcY38XdCO-17" value="show register &lt;br&gt;menu" style="shape=parallelogram;perimeter=parallelogramPerimeter;whiteSpace=wrap;html=1;fixedSize=1;" vertex="1" parent="1">
          <mxGeometry x="520" y="410" width="120" height="60" as="geometry" />
        </mxCell>
        <mxCell id="wPfE8MKBhXClcY38XdCO-22" style="edgeStyle=orthogonalEdgeStyle;rounded=0;orthogonalLoop=1;jettySize=auto;html=1;entryX=1;entryY=0.5;entryDx=0;entryDy=0;exitX=0;exitY=0.5;exitDx=0;exitDy=0;" edge="1" parent="1" source="wPfE8MKBhXClcY38XdCO-18" target="wPfE8MKBhXClcY38XdCO-15">
          <mxGeometry relative="1" as="geometry">
            <Array as="points" />
          </mxGeometry>
        </mxCell>
        <mxCell id="wPfE8MKBhXClcY38XdCO-18" value="fill in email, &lt;br&gt;username and password." style="rounded=0;whiteSpace=wrap;html=1;shape=parallelogram;perimeter=parallelogramPerimeter;" vertex="1" parent="1">
          <mxGeometry x="360" y="410" width="120" height="60" as="geometry" />
        </mxCell>
        <mxCell id="wPfE8MKBhXClcY38XdCO-25" value="end" style="ellipse;whiteSpace=wrap;html=1;" vertex="1" parent="1">
          <mxGeometry x="40" y="400" width="120" height="80" as="geometry" />
        </mxCell>
      </root>
    </mxGraphModel>
  </diagram>
</mxfile>
